<svg version="1.2" xmlns="http://www.w3.org/2000/svg" viewBox="0 0 978 974" width="978" height="974">
	<style>
		.s0 { fill: #168ff3 } 
	</style>
	<path id="&lt;/Layer group&gt;" fill-rule="evenodd" class="s0" d="m394 1.12c10.73-0.06 23.55 0.34 28.5 0.89 4.95 0.54 13.95 1.94 20 3.1 6.05 1.16 17.75 4.32 26 7.01 8.83 2.89 21.17 7.96 30 12.33 8.25 4.08 20.17 10.87 26.5 15.09 6.33 4.22 14.88 10.49 19 13.94 4.13 3.45 12 10.94 17.5 16.65 5.5 5.71 13.4 14.88 17.55 20.37 4.15 5.5 10.21 14.5 13.45 20 3.24 5.5 8.45 15.4 11.57 22 3.12 6.6 7.34 16.95 9.38 23 2.04 6.05 4.56 14.6 5.61 19 1.05 4.4 2.66 12.72 3.57 18.5 1.37 8.61 1.75 20.87 2.57 125.5l15.15-7.57c8.33-4.17 19.2-9.06 24.15-10.87 4.95-1.8 14.85-4.75 22-6.54 7.15-1.79 18.4-4.07 25-5.06 8.3-1.25 17.86-1.81 31-1.81 10.45-0.01 23.5 0.55 29 1.24 5.5 0.7 15.4 2.39 22 3.78 6.6 1.38 17.17 4.21 23.5 6.29 6.33 2.08 17.13 6.34 24 9.47 6.88 3.13 17 8.37 22.5 11.64 5.5 3.28 14.95 9.63 21 14.12 6.05 4.48 16.34 13.36 22.86 19.73 6.52 6.37 14.77 15.18 18.33 19.58 3.55 4.4 9.46 12.5 13.12 18 3.66 5.5 9.85 16.3 13.74 24 3.9 7.7 9 19.4 11.33 26 2.34 6.6 5.38 16.27 6.75 21.5 1.37 5.23 3.36 15.35 4.43 22.5 1.46 9.85 1.93 18.33 1.92 35-0.01 13.6-0.56 25.82-1.44 32-0.78 5.5-2.33 14.05-3.43 19-1.11 4.95-3.77 14.17-5.9 20.5-2.14 6.33-5.37 14.88-7.17 19-1.81 4.13-5.77 12-8.8 17.5-3.03 5.5-8.09 13.83-11.23 18.5-3.14 4.67-8.42 11.88-11.73 16-3.3 4.13-10.68 12.18-16.4 17.89-5.71 5.71-13.98 13.29-18.38 16.84-4.4 3.54-13.4 10.05-20 14.46-6.6 4.41-18.75 11.32-27 15.35-8.25 4.04-19.73 8.97-25.5 10.96-5.77 2-15.9 4.96-22.5 6.59-6.6 1.62-16.05 3.62-21 4.44-4.95 0.82-16.42 1.77-25.5 2.11-10.12 0.38-21.53 0.15-29.5-0.58-7.15-0.66-17.73-2.07-23.5-3.13-5.77-1.05-15-3.28-20.5-4.95-5.5-1.67-13.83-4.43-18.5-6.14-4.67-1.71-14.12-5.84-21-9.17-6.87-3.34-12.84-6.2-13.25-6.37-0.41-0.16-0.64 32.89-0.5 73.45 0.23 68.07 0.11 74.33-1.55 81.25-0.99 4.12-2.93 10.87-4.31 15-1.38 4.12-4.23 11.1-6.35 15.5-2.11 4.4-6.23 11.6-9.15 16-2.92 4.4-8.93 11.6-13.37 16-4.43 4.4-12.1 10.75-17.04 14.12-4.94 3.37-11.79 7.53-15.23 9.25-3.44 1.72-10.19 4.46-15 6.08-4.81 1.62-12.8 3.65-17.75 4.51-4.95 0.86-12.49 1.56-24.5 1.54l-0.14-129.75c-0.07-71.36-0.44-242.92-1.52-632.75l-2.18-9c-1.19-4.95-3.13-11.93-4.31-15.5-1.17-3.57-3.82-9.88-5.88-14-2.06-4.13-5.77-10.2-8.24-13.5-2.47-3.3-7.59-8.94-11.36-12.52-3.78-3.59-9.8-8.51-13.37-10.95-3.57-2.43-10.1-6.11-14.5-8.18-4.4-2.07-11.6-4.77-16-6.01-7.02-1.97-10.32-2.24-27-2.23-17.87 0.02-19.54 0.18-28 2.77-4.95 1.52-12.6 4.44-17 6.5-4.4 2.05-10.93 5.72-14.5 8.15-3.57 2.44-9.59 7.36-13.36 10.95-3.77 3.58-9.01 9.45-11.63 13.02-2.63 3.57-6.69 10.32-9.03 15-2.35 4.68-5.33 11.65-6.64 15.5-1.31 3.85-3.02 10.6-3.8 15-1 5.61-1.59 20.19-2.54 89.5h141v108h-142.5l1 45.25c0.55 24.89 0.94 59.2 0.88 76.25-0.07 17.05-0.65 40.23-1.29 51.5-0.65 11.27-2.05 27.36-3.13 35.75-1.08 8.39-3.13 20.76-4.55 27.5-1.43 6.74-4.1 17.42-5.94 23.75-1.84 6.33-5.78 17.58-8.76 25-2.98 7.42-7.57 17.77-10.2 23-2.63 5.23-7.5 14-10.82 19.5-3.32 5.5-8.28 13.15-11.03 17-2.74 3.85-8.4 11.25-12.57 16.43-4.17 5.19-11.43 13.29-16.12 18-4.68 4.72-12.33 11.64-17 15.4-4.66 3.75-13.63 10.28-19.95 14.5-6.31 4.22-17.33 10.62-24.5 14.23-7.16 3.61-17.52 8.2-23.02 10.2-5.5 2-14.05 4.81-19 6.25-4.95 1.43-13.28 3.49-18.5 4.57-5.22 1.08-14.9 2.65-21.5 3.5-6.6 0.84-22.62 1.84-59.21 2.92l-0.63-5.5c-0.35-3.02-0.7-22.15-0.78-42.5-0.14-34.87-0.03-37.37 1.92-43.5 1.14-3.58 4.04-9.2 6.44-12.5 2.4-3.3 6.59-7.44 9.31-9.2 2.72-1.76 6.97-3.91 9.45-4.78 2.48-0.87 9.67-2.45 16-3.52 6.33-1.07 15.55-3.11 20.5-4.54 4.95-1.43 12.37-4.05 16.5-5.82 4.12-1.78 11.55-5.85 16.5-9.04 5.54-3.58 12.66-9.53 18.51-15.46 5.23-5.3 12.24-13.69 15.57-18.64 3.32-4.95 7.93-12.94 10.23-17.75 2.31-4.81 6.17-14.71 8.58-22 2.42-7.29 5.37-17.75 6.57-23.25 1.2-5.5 2.84-14.73 3.65-20.5 1.1-7.83 1.7-28.79 2.38-82.5 0.5-39.6 0.93-80.44 1.01-109.5h-147v-108h147v-41.5c0-22.82 0.48-45.89 1.06-51.25 0.58-5.36 1.95-14.25 3.05-19.75 1.1-5.5 4.01-16.07 6.46-23.5 2.46-7.43 7.3-19.35 10.77-26.5 3.46-7.15 8.97-17.28 12.25-22.5 3.27-5.22 8.64-13.09 11.93-17.47 3.29-4.38 10.03-12.22 14.98-17.42 4.95-5.2 13.95-13.7 20-18.89 6.05-5.19 16.4-13.06 23-17.49 6.6-4.43 18.3-11.1 26-14.83 7.7-3.72 20.07-8.78 27.5-11.24 7.43-2.47 18-5.46 23.5-6.65 5.5-1.19 14.5-2.76 20-3.48 5.5-0.72 18.77-1.35 29.5-1.41zm328.5 399.94c-3.3 0.52-9.38 1.87-13.5 3-4.13 1.13-12 4.18-17.5 6.79-5.5 2.61-13.38 7.05-17.5 9.87-4.13 2.82-11.44 9.21-16.25 14.21-4.81 4.99-11.17 12.78-14.13 17.32-2.96 4.54-6.72 10.95-8.37 14.25-1.65 3.3-4.19 9.6-5.65 14-1.46 4.4-3.29 11.6-4.06 16-0.78 4.4-1.69 10.92-2.03 14.5-0.34 3.58-0.11 11.45 0.51 17.5 0.62 6.05 2.24 15.27 3.59 20.5 1.34 5.22 4.37 13.55 6.73 18.5 2.35 4.95 6.71 12.6 9.68 17 2.97 4.4 8.8 11.54 12.94 15.87 4.15 4.33 11.37 10.75 16.04 14.27 4.67 3.52 13 8.64 18.5 11.36 5.67 2.82 13.68 5.83 18.5 6.96 4.67 1.1 13 2.47 18.5 3.05 6.95 0.72 12.9 0.72 19.5-0.01 5.23-0.57 12.2-1.53 15.5-2.12 3.3-0.59 9.6-2.38 14-3.97 4.4-1.59 12.05-5.2 17-8.03 4.95-2.82 12.6-7.93 17-11.36 4.4-3.42 10.66-9.11 13.9-12.62 3.25-3.52 7.72-9.1 9.95-12.4 2.22-3.3 5.95-10.05 8.28-15 2.34-4.95 5.36-12.83 6.71-17.5 1.36-4.67 2.96-11.99 3.56-16.25 0.61-4.26 1.1-12.81 1.11-19 0-6.19-0.73-15.53-1.62-20.75-0.9-5.23-2.7-12.76-4.01-16.75-1.31-3.99-3.93-10.51-5.83-14.5-1.89-3.99-5.8-10.85-8.68-15.25-2.89-4.4-9.32-12.06-14.31-17.01-4.98-4.96-12.21-11.12-16.06-13.68-3.85-2.57-11.27-6.71-16.5-9.21-5.23-2.5-14-5.72-19.5-7.15-8.08-2.11-12.87-2.68-25-2.98-8.25-0.2-17.7 0.06-21 0.59z"/>
</svg>