<svg xmlns="http://www.w3.org/2000/svg" viewBox="45 45 208.5 158">
  <title>Spendesk</title>
  <path fill="#7136ed" d="M166.3 111.4a3.4 3.4 0 0 1 0-4.8l24.8-24.8a3.4 3.4 0 0 1 4.8 0l50.1 50.1a9.5 9.5 0 0 1 2.7 6.7 9.6 9.6 0 0 1-2.8 6.8l-51.4 51.4a3.4 3.4 0 0 1-2.4 1h-49.6a3.4 3.4 0 0 1-2.3-5.9l51-51a3.4 3.4 0 0 0 1-2.4c0-.9-.3-1.7-1-2.4l-24.9-24.7Z"/>
  <path fill="#7136ed" d="M132.2 136.3a3.4 3.4 0 0 1 0 4.8l-24.8 24.8a3.4 3.4 0 0 1-4.8 0l-50.1-50.1a9.5 9.5 0 0 1-2.7-6.7 9.6 9.6 0 0 1 2.8-6.8L104 50.8a3.4 3.4 0 0 1 2.4-1H156a3.4 3.4 0 0 1 2.3 5.9l-51 51a3.4 3.4 0 0 0-1 2.4c0 .9.3 1.7 1 2.4l24.9 24.8Z"/>
</svg>
